<svg id="Capa_1" data-name="Capa 1" xmlns="http://www.w3.org/2000/svg" viewBox="0 0 42.51 59.02"><defs><style>.cls-1{fill:none;}</style></defs><rect class="cls-1" x="18.29" y="12.93" width="6.4" height="4.91"/><path class="cls-1" d="M28.07,45.93a3.3,3.3,0,0,0,3.45-3.47V22.67A3.32,3.32,0,0,0,28,19.13H14.9a3.3,3.3,0,0,0-3.43,3.41V42.42A3.29,3.29,0,0,0,15,45.93Zm-.64-21.4a.64.64,0,0,1,.65-.6.62.62,0,0,1,.61.66c0,.59,0,1.19,0,1.78V40.25c0,.18,0,.4-.08.51s-.38.37-.56.35a.94.94,0,0,1-.57-.41c-.09-.11-.06-.33-.06-.51V24.77A1.92,1.92,0,0,1,27.43,24.53ZM14.31,40.64a1.4,1.4,0,0,1,0-.41V24.85a2.17,2.17,0,0,1,0-.36.64.64,0,0,1,.63-.57.63.63,0,0,1,.61.59c0,.15,0,.3,0,.44v7.57q0,3.87,0,7.73a2.29,2.29,0,0,1,0,.37.58.58,0,0,1-.58.52A.6.6,0,0,1,14.31,40.64Z"/><polygon class="cls-1" points="25.56 47.22 25.56 47.23 27.76 47.23 27.76 47.22 25.56 47.22"/><path class="cls-1" d="M15.17,14.44a.11.11,0,0,0,0,.07c0,1.1,0,2.2,0,3.33H17V14.5a.22.22,0,0,0,0-.08c0-.34,0-.68,0-1s0-.39,0-.59a1,1,0,0,0,0-.28c0-.73.16-.9.9-.9h7.44a.59.59,0,0,1,.58.61c0,.24,0,.48,0,.74h0c0,.45,0,.89,0,1.34v3.5h1.84V14.58a.31.31,0,0,0,0-.19c0-.33,0-.65,0-1,0-.13,0-.27,0-.41h0c0-.46,0-.86,0-1.26,0-.14,0-.27,0-.41a1.13,1.13,0,0,0-1.2-1.11H16.31a1.12,1.12,0,0,0-1.18,1.13c0,.45,0,.91,0,1.37a.82.82,0,0,0,0,.18C15.13,13.42,15.13,13.92,15.17,14.44Z"/><path d="M25.56,47.22h2.2a6.08,6.08,0,0,0,1-.06,5,5,0,0,0,.6-.12,5.09,5.09,0,0,0,2.56-1.7,4.62,4.62,0,0,0,.88-2.79v-20a4.47,4.47,0,0,0-3.3-4.47.44.44,0,0,1-.36-.51q0-3,0-6A2.4,2.4,0,0,0,26.57,9H16.45a2.39,2.39,0,0,0-2.57,2.58v6c0,.2,0,.37-.26.46a4.54,4.54,0,0,0-3.41,4.68V42c0,.29,0,.59,0,.89a4.47,4.47,0,0,0,.73,2.3,4.23,4.23,0,0,0,.94,1,5.3,5.3,0,0,0,2,1ZM15.13,11.35a1.12,1.12,0,0,1,1.18-1.13H26.66a1.13,1.13,0,0,1,1.2,1.11c0,.14,0,.27,0,.41,0,.4,0,.8,0,1.26h0c0,.14,0,.28,0,.41,0,.33,0,.65,0,1a.31.31,0,0,1,0,.19v3.26H26v-3.5c0-.45,0-.89,0-1.34h0c0-.26,0-.5,0-.74a.59.59,0,0,0-.58-.61H17.94c-.74,0-.93.17-.9.9a1,1,0,0,1,0,.28c0,.2,0,.39,0,.59s0,.68,0,1a.22.22,0,0,1,0,.08v3.34H15.13c0-1.13,0-2.23,0-3.33a.11.11,0,0,1,0-.07c0-.52,0-1,0-1.54a.82.82,0,0,1,0-.18C15.13,12.26,15.11,11.8,15.13,11.35Zm9.56,1.58v4.91h-6.4V12.93ZM11.47,42.42V22.54a3.3,3.3,0,0,1,3.43-3.41H28a3.32,3.32,0,0,1,3.55,3.54V42.46a3.3,3.3,0,0,1-3.45,3.47H15A3.29,3.29,0,0,1,11.47,42.42Z"/><path d="M27.49,40.7a.94.94,0,0,0,.57.41c.18,0,.42-.18.56-.35s.07-.33.08-.51V26.37c0-.59,0-1.19,0-1.78a.62.62,0,0,0-.61-.66.64.64,0,0,0-.65.6,1.92,1.92,0,0,0,0,.24V40.19C27.43,40.37,27.4,40.59,27.49,40.7Z"/><path d="M15.53,40.62a2.29,2.29,0,0,0,0-.37q0-3.86,0-7.73V25c0-.14,0-.29,0-.44a.63.63,0,0,0-.61-.59.64.64,0,0,0-.63.57,2.17,2.17,0,0,0,0,.36V40.23a1.4,1.4,0,0,0,0,.41.6.6,0,0,0,.64.5A.58.58,0,0,0,15.53,40.62Z"/></svg>