<svg id="Capa_1" data-name="Capa 1" xmlns="http://www.w3.org/2000/svg" viewBox="0 0 57.87 53.11"><defs><style>.cls-1{fill:#1d1d1b;}.cls-2{fill:none;stroke:#1d1d1b;stroke-miterlimit:10;}</style></defs><path class="cls-1" d="M36.74,6.88a2.82,2.82,0,0,1,.77,0,1.52,1.52,0,0,1,.69.47c.21.26,0,.54-.17.77-1.29,1.49-2.56,3-3.86,4.48a.68.68,0,0,0-.14.83c.39,1,.72,1.93,1.1,2.88a.78.78,0,0,0,.43.39c1,.26,1.94.47,2.9.72a.47.47,0,0,0,.55-.17q2-2.33,4-4.63c.07-.08.13-.16.2-.23a.65.65,0,0,1,1.17.32,8.78,8.78,0,0,1-2,8.26,8.23,8.23,0,0,1-6.5,2.85,3.88,3.88,0,0,1-1-.09,2.19,2.19,0,0,0-2.36.89c-.5.52-1,1.06-1.43,1.59L19.84,39.09c-1.16,1.33-2.34,2.66-3.44,4a4,4,0,0,1-5.47.68,4.06,4.06,0,0,1-1-5.56A7.79,7.79,0,0,1,11,37.1l14.13-14c.84-.84,1.67-1.68,2.52-2.51a2.71,2.71,0,0,0,.82-1.7,1.25,1.25,0,0,0-.1-.53A8.41,8.41,0,0,1,30.1,9.82,8.6,8.6,0,0,1,36.74,6.88Zm.63.83,0-.13L36,7.64A7.91,7.91,0,0,0,29.09,18,2.33,2.33,0,0,1,29,19.89a5.56,5.56,0,0,1-1,1.39q-7.64,7.61-15.3,15.17c-.7.7-1.45,1.35-2.09,2.09a3.26,3.26,0,0,0,.56,4.53,3.13,3.13,0,0,0,4.45-.3c1.56-1.79,3.08-3.6,4.64-5.39q4.79-5.46,9.58-10.91c.73-.84,1.47-1.68,2.23-2.49a2.85,2.85,0,0,1,2.75-1,7.21,7.21,0,0,0,3.6-.27,8,8,0,0,0,5.45-7.5c0-.71-.08-1.42-.13-2.13h-.13l-.28.31c-1.32,1.51-2.65,3-4,4.55a.74.74,0,0,1-.83.28c-1.13-.28-2.27-.52-3.4-.83a1,1,0,0,1-.61-.5c-.49-1.19-.92-2.4-1.38-3.6a.84.84,0,0,1,.18-.94c.42-.47.83-.95,1.24-1.42Z"/><circle class="cls-2" cx="13.73" cy="40.09" r="1.42"/></svg>