<svg id="Capa_1" data-name="Capa 1" xmlns="http://www.w3.org/2000/svg" viewBox="0 0 42.51 59.02"><defs><style>.cls-1{fill:#1d1d1b;}.cls-2{fill:none;stroke:#1d1d1b;stroke-miterlimit:10;stroke-width:1.01px;}</style></defs><path class="cls-1" d="M22.49,28.52h1.4a3.78,3.78,0,0,1,.67,0,.6.6,0,0,1,.42,1c-.37.51-.76,1-1.14,1.5q-2.18,2.84-4.36,5.66a1.26,1.26,0,0,1-.37.42.8.8,0,0,1-.61.1.67.67,0,0,1-.29-.5,2.15,2.15,0,0,1,.13-.69l1.42-4.9a3,3,0,0,0,.07-.35H17.9c-.3,0-.58,0-.72-.34a.83.83,0,0,1,.15-.91l4.63-6,.76-1c.19-.24.38-.49.74-.33s.36.49.29.81c-.2.88-.41,1.75-.61,2.63S22.72,27.55,22.49,28.52ZM20,34.25l.08,0,3.59-4.68c-.31,0-.52,0-.73,0l-.64,0c-.59-.06-.89-.37-.83-1a11.81,11.81,0,0,1,.25-1.32c.16-.71.33-1.42.5-2.12l-.08,0L18.56,29.7c.06,0,.07.06.09.06l1.51,0c.76,0,1,.3.78,1.05s-.34,1.21-.51,1.81S20.14,33.72,20,34.25Z"/><rect class="cls-2" x="12.06" y="12.98" width="17.52" height="32.73" rx="0.8"/><path class="cls-2" d="M17.82,8.42h6.25a.81.81,0,0,1,.81.81V13a0,0,0,0,1,0,0H17a0,0,0,0,1,0,0V9.23A.81.81,0,0,1,17.82,8.42Z"/></svg>