<svg id="Capa_1" data-name="Capa 1" xmlns="http://www.w3.org/2000/svg" viewBox="0 0 65.87 63.32"><defs><style>.cls-1{fill:#1d1d1b;}</style></defs><path class="cls-1" d="M50.27,26.1c0,2,0,4.07,0,6.1a12.9,12.9,0,0,1-2.71,8.24A25.14,25.14,0,0,1,40,47.16a31.17,31.17,0,0,1-4.51,2.17,6,6,0,0,1-.81.29,1.59,1.59,0,0,1-.81,0A27.31,27.31,0,0,1,22.25,42a16.82,16.82,0,0,1-3.16-4.86,12,12,0,0,1-.84-4.44V18.54a1.24,1.24,0,0,1,1.45-1.36,13.87,13.87,0,0,0,5.84-1,29.4,29.4,0,0,0,7.88-4.51,1.24,1.24,0,0,1,1.69,0,29,29,0,0,0,8.22,4.63,14.08,14.08,0,0,0,4.75.89c.27,0,.54,0,.8,0a1.24,1.24,0,0,1,1.39,1.31ZM19.5,18.46a1,1,0,0,0,0,.19V32.8a10.64,10.64,0,0,0,.92,4.34,16,16,0,0,0,2.67,4,26.2,26.2,0,0,0,11.06,7.3.45.45,0,0,0,.23,0c.27-.09.54-.18.79-.29,1.1-.5,2.21-1,3.27-1.52a23.74,23.74,0,0,0,8.17-6.93A11.82,11.82,0,0,0,49,32.25c0-4.51,0-9,0-13.55v-.28c-.05,0-.08,0-.1,0a15,15,0,0,1-6-.92,30.22,30.22,0,0,1-8.53-4.77c-.13-.11-.21-.12-.36,0a31.38,31.38,0,0,1-6.71,4,18.26,18.26,0,0,1-5.5,1.58C21.09,18.43,20.31,18.42,19.5,18.46Z"/><path class="cls-1" d="M30.9,32.61l2-2,8.12-8.13a1.22,1.22,0,0,1,1.77,0c.57.56,1.14,1.12,1.7,1.69a1.23,1.23,0,0,1,0,1.81l-4.7,4.7-7.9,7.9a1.23,1.23,0,0,1-1.86,0l-6-5.61A1.23,1.23,0,0,1,24,31.09l1.57-1.68a1.23,1.23,0,0,1,1.84-.06l3.3,3.09Zm11-9.33-11,11-4.39-4.1L24.83,32l6.1,5.69L43.63,25Z"/></svg>