<svg id="Capa_1" data-name="Capa 1" xmlns="http://www.w3.org/2000/svg" viewBox="0 0 108 36.26"><path d="M24,23.91l3.39-9.47H25.23a.37.37,0,0,0-.42.28q-1.33,3.54-2.69,7.06c-.24.64-.48,1.27-.74,1.91a.41.41,0,0,1-.24.21h-3.5l4.24-11.24H15.42c0-.43,0-.8,0-1.16,0-.6,0-1.19,0-1.78,0-.22.07-.31.29-.29H26.39l.31,0-.62,1.88H32.2l-.68,2H37.7l-2.84,7.8c1,0,1.88,0,2.78,0,.1,0,.23-.19.28-.32.7-1.73,1.37-3.47,2.1-5.19a3.31,3.31,0,0,1,2.49-2.22,2.49,2.49,0,0,1,.47,0h7.36l.36,0-2.76,7.83h1c.55,0,1.1,0,1.64,0,.25,0,.35-.08.44-.31q1.7-4.47,3.4-8.94c.28-.73.54-1.46.84-2.19a.45.45,0,0,1,.31-.26c1,0,2,0,3,0a1.23,1.23,0,0,1,.21,0L56.13,17l.06,0c.39-.36.78-.72,1.16-1.09L60,13.49a.65.65,0,0,1,.37-.18h3.79l.16,0-.29.3c-1.49,1.46-3,2.92-4.47,4.37a.58.58,0,0,0-.18.64c.21.75.41,1.51.59,2.27a.34.34,0,0,0,.39.3c.86,0,1.73,0,2.59,0,.23,0,.3-.12.37-.3,1-2.46,1.94-4.91,2.9-7.37.06-.15.11-.27.32-.27h3.09l.17,0c-.93,2.61-1.86,5.2-2.81,7.84l.36,0h3.43a.34.34,0,0,0,.38-.23Q72.06,18.47,73,16c0-.06,0-.13.06-.24H70.71c.3-.84.58-1.63.88-2.41,0-.07.2-.13.3-.13.57,0,1.14,0,1.71,0A.38.38,0,0,0,74,13c.44-1.1.89-2.2,1.35-3.29,0-.11.19-.25.28-.25,1.06,0,2.11,0,3.16,0l.24,0-1.36,3.65h2.09a2.34,2.34,0,0,1,0,.27c-.23.7-.46,1.38-.68,2.08a.31.31,0,0,1-.35.26H76.91a.34.34,0,0,0-.37.25l-1.72,4.8a1.7,1.7,0,0,0-.06.28l.28,0c1.16,0,2.32,0,3.49,0,.25,0,.32-.13.39-.32.61-1.63,1.21-3.27,1.83-4.9a3.81,3.81,0,0,1,2.14-2.37,2.77,2.77,0,0,1,1-.2c2.46,0,4.92,0,7.39,0l.22,0c-.94,2.58-1.86,5.14-2.81,7.76h5.51v2.83H87.09a2.29,2.29,0,0,1-2.21-1.53c0-.06-.06-.12-.13-.29-.48.51-.92,1-1.34,1.44a1,1,0,0,1-.93.39c-.56,0-1.12,0-1.68,0a2.09,2.09,0,0,1-2.13-1.55,1.16,1.16,0,0,0-.08-.2,11.18,11.18,0,0,0-1,1,2,2,0,0,1-1.84.75c-.94-.06-1.88,0-2.82,0A2.07,2.07,0,0,1,71,22.55c0-.1-.07-.19-.12-.33-.08.07-.16.11-.23.18-.48.42-.94.87-1.42,1.27a1,1,0,0,1-.56.23c-1.23,0-2.46,0-3.69,0a1.75,1.75,0,0,1-1.77-1.18c-.07-.17-.13-.35-.21-.58l-.7.65a4.54,4.54,0,0,1-1.13,1,3.87,3.87,0,0,1-1.49.07c-.68,0-1.36,0-2,0-.27,0-.38-.08-.46-.34-.46-1.54-.94-3.08-1.42-4.62,0-.1-.07-.2-.13-.38a2.73,2.73,0,0,0-.15.31c-.6,1.57-1.21,3.15-1.81,4.73-.06.16-.1.3-.33.3H50l-.12,0,.61-1.62,0-.05-.27.2c-.52.44-1,.9-1.56,1.33a.77.77,0,0,1-.44.17c-.79,0-1.59,0-2.38,0a1.52,1.52,0,0,1-1.51-1,6.26,6.26,0,0,1-.34-.85c-.54.46-1.1.88-1.6,1.35a1.52,1.52,0,0,1-1.2.45c-.6-.05-1.2,0-1.81,0a1,1,0,0,1-.68-.26c-.37-.42-.68-.9-1-1.39l-.24.15-1.91,1.37a.62.62,0,0,1-.36.14c-1.55,0-3.09,0-4.64,0l-.18,0,3-7.64h-1c-.45,0-.9,0-1.35,0a.38.38,0,0,0-.44.29c-.86,2.32-1.73,4.63-2.59,7a.54.54,0,0,1-.61.44C26.17,23.89,25.11,23.91,24,23.91Zm62.82-7.67c-.79,0-1.52,0-2.24,0-.22,0-.31.09-.39.28-.56,1.43-1.14,2.86-1.71,4.3,0,.11-.07.22-.12.39.77,0,1.49,0,2.2,0a.38.38,0,0,0,.41-.29c.34-.88.7-1.74,1.05-2.62C86.27,17.64,86.53,17,86.81,16.24Zm-40.71,0c-.78,0-1.48,0-2.18,0a.41.41,0,0,0-.46.32c-.56,1.42-1.14,2.84-1.71,4.27,0,.1-.07.22-.12.37.82,0,1.58,0,2.34,0,.09,0,.21-.14.26-.24.36-.88.7-1.76,1.06-2.64Z"/><path d="M71.13,9.41c-.34.94-.65,1.82-1,2.7a.32.32,0,0,1-.24.17H66.64A1.37,1.37,0,0,1,66.7,12c.28-.78.55-1.56.85-2.34a.43.43,0,0,1,.27-.26Z"/><path d="M90,6.45a1.45,1.45,0,1,1-1.44,1.46A1.43,1.43,0,0,1,90,6.45Zm0,.11a1.35,1.35,0,0,0-1.38,1.31A1.38,1.38,0,0,0,90,9.25a1.35,1.35,0,0,0,1.39-1.33A1.32,1.32,0,0,0,90,6.56Z"/><path d="M90.59,7.86l.15.76-.13.05a.86.86,0,0,1-.11-.24A.62.62,0,0,0,89.62,8c-.07.05-.07.2-.09.3s0,.23-.06.34h-.11V7.16a6,6,0,0,1,1,0C90.76,7.23,90.82,7.53,90.59,7.86Zm-1.15-.57c.11.23.14.47.27.54a.77.77,0,0,0,.54,0c.1,0,.25-.18.23-.25a.39.39,0,0,0-.26-.27A4.72,4.72,0,0,0,89.44,7.29Z"/></svg>